<svg id="Layer_1" data-name="Layer 1" xmlns="http://www.w3.org/2000/svg" viewBox="0 0 100 100"><defs><style>.cls-1{fill:#231f20;}</style></defs><title>VKV-icons-set</title><path class="cls-1" d="M81.43,25.89q1.45-4.38-.55-6.77c-1.59-1.33-3.84-1.52-6.77-.55a20.11,20.11,0,0,0-7.87,4.94l-7.31,7.32L28.52,23.56a1.33,1.33,0,0,0-1.37.37L21.3,29.78A1.38,1.38,0,0,0,20.89,31a1.53,1.53,0,0,0,.78,1.1L44.89,44.87,33.06,56.71l-8.88-2.42a.78.78,0,0,0-.37,0,1.46,1.46,0,0,0-1,.41l-4.38,4.44A1.54,1.54,0,0,0,18,60.23a1.39,1.39,0,0,0,.59,1.05l11.53,8.64,8.64,11.53a1.65,1.65,0,0,0,1.1.59h.09A1.42,1.42,0,0,0,41,81.63l4.39-4.39a1.37,1.37,0,0,0,.36-1.42L43.29,67,55.13,55.11,67.89,78.34a1.3,1.3,0,0,0,1,.73,1,1,0,0,0,.32.05,1.3,1.3,0,0,0,.87-.28l5.86-4.39a1.4,1.4,0,0,0,.54-1.51L69.13,41.12l7.36-7.36a20,20,0,0,0,4.94-7.87"/></svg>